<svg width="500" height="76" viewBox="0 0 500 76" fill="none" xmlns="http://www.w3.org/2000/svg">
<g clip-path="url(#clip0_133653_2)">
<path d="M210.8 22.1C205.1 22.1 200 23.8 195.7 26.6V0.5H183.6V48.6C183.6 63.2 195.8 75 210.7 75C225.6 75 238 63.3 238 48.5C238 33.7 226 22.1 210.8 22.1ZM148.2 22.9C134.8 24.2 123.8 35.5 123.8 49C123.8 63.2 136.3 75.2 150.9 75.2C165.5 75.2 178 63.3 178 49C178 42.9 175.8 37.4 172.1 33L145.4 0.6H129.8L148.2 22.9ZM54.9 52L43.8 24H35.3L24.3 52L13.2 24H0L19.4 73.4H27.9L39.6 44L51.3 73.4H59.8L79.1 24H66L54.9 52ZM270.8 22.2C255.7 22.2 243.5 33.6 243.5 48.1C243.5 62.5 254.2 75.2 270.1 75.2C279.6 75.2 287.3 70.7 292.8 63.1L283.4 55.6C280.7 60.4 275.4 63.2 270.2 63.2C263.4 63.2 256.7 58.5 256.2 51.6H295.7V48C295.6 32.8 285.3 22.2 270.8 22.2ZM424.8 22.2C409.7 22.2 397.6 33.6 397.6 48.7C397.6 62.9 408.3 75.1 424.1 75.1C433.6 75.1 441.3 70.6 446.8 63L438.5 56.1C435.6 60.5 430.3 63.1 423.9 63.1C417.6 63.1 410.7 58.4 410.2 51.5H449.5V47.4C449.5 32.8 439.3 22.2 424.8 22.2ZM467 38.4C467 35.3 471.3 32.9 476.9 32.9C482.5 32.9 488.7 35.6 492.7 40L500 31.3C493 25.3 486 22.2 477.2 22.2C466.2 22.2 454.9 27.1 454.9 38.4C454.9 52.3 467.2 53.3 477.2 54.1C482.8 54.5 487.8 54.9 487.8 58.5C487.8 62.4 482.1 64.2 477.2 64.2C470.8 64.2 464.7 61.3 460.6 56.4L452.8 64.5C459 71.9 468 75.1 476.8 75.1C487.8 75.1 499.9 70 499.9 58.3C499.9 45.1 487.5 43.8 478 42.9C471.9 42.2 467 41.7 467 38.4ZM313.9 35.2V24H301.8V73.3H313.9V52.4C315.5 40.8 325 36.1 336 36.1V24H334.8C325.5 24 318.7 27.3 313.9 35.2ZM352.2 35.2V24H340.1V73.3H352.2V52.4C353.8 39.3 365.4 36.1 374.3 36.1V24H373C363.8 24 357 27.2 352.2 35.2ZM105.6 73.3H117.7V0.6H105.6V73.3ZM150.9 63.3C142.6 63.3 135.8 56.8 135.8 48.7C135.8 40.6 142.5 34 150.8 34C159 34 166 40.5 166 48.7C166 56.9 159.3 63.3 150.9 63.3ZM210.8 63.3C202.6 63.3 195.7 56.9 195.7 48.6C195.7 40.3 202.2 34 210.8 34C219.4 34 226 40.5 226 48.6C226 56.7 219.1 63.3 210.8 63.3ZM84.7 73.3H96.8V24H84.7V73.3ZM379.4 73.3H391.5V24H379.4V73.3ZM90.6 0C85.7 0 81.6 4 81.6 9C81.6 14.1 85.9 17.6 90.6 17.6C95.8 17.6 99.8 13.3 99.8 8.8C99.8 4.2 95.6 0 90.6 0ZM385.4 0C380.5 0 376.3 4 376.3 9C376.3 14 380.3 17.6 385.6 17.6C390.9 17.6 394.5 14.1 394.5 9.2C394.5 4.3 390.4 0 385.4 0ZM411.6 41.7C413.6 36.8 417.9 34 424.2 34C430.5 34 434.4 37 436 41.7H411.6ZM257.5 41.7C259.5 36.8 263.8 34 270 34C276.3 34 280.4 37 282 41.7C282.1 41.7 257.5 41.7 257.5 41.7Z" fill="white"/>
</g>
<defs>
<clipPath id="clip0_133653_2">
<rect width="500" height="75.1" fill="white"/>
</clipPath>
</defs>
</svg>
